<svg xmlns="http://www.w3.org/2000/svg" xmlns:xlink="http://www.w3.org/1999/xlink" id="Layer_1" x="0px" y="0px" width="100%" viewBox="0 0 1024 720" xml:space="preserve"><path fill="#000000" opacity="1.000000" stroke="none" d="M726.340332,372.000061  C726.343323,386.995636 726.336121,401.491180 726.352844,415.986725  C726.360901,422.965027 726.381287,422.997223 719.488892,422.997681  C652.675964,423.002167 585.862976,422.991882 519.050049,422.992401  C485.560272,422.992676 452.070526,423.015533 418.580750,423.006775  C411.770050,423.004974 411.477844,422.949310 411.746765,416.042755  C411.935211,411.203339 409.928497,410.063080 405.546143,410.202332  C399.004272,410.410217 398.869293,410.055328 398.869415,403.492432  C398.870148,361.172394 398.871063,318.852356 398.872467,276.532318  C398.872681,269.721497 398.873962,269.704987 405.893982,269.705078  C506.363312,269.706451 606.832642,269.711212 707.301941,269.720825  C714.026611,269.721497 714.269958,269.748962 714.099731,276.670898  C713.991516,281.067535 715.881836,282.072174 719.799316,281.871887  C726.178101,281.545746 726.332825,281.813049 726.335083,288.025726  C726.344971,315.850494 726.339722,343.675293 726.340332,372.000061 M465.499939,405.665588  C544.462708,405.666351 623.425476,405.667816 702.388245,405.666443  C709.359985,405.666321 709.647522,405.442352 709.587646,398.295837  C709.494141,387.139191 708.848755,375.969513 709.207886,364.830200  C710.115173,336.692657 708.879150,308.551819 709.701355,280.424652  C709.844421,275.529724 708.185608,274.246979 703.438843,274.253235  C605.651672,274.382172 507.864288,274.381439 410.076996,274.306335  C405.954254,274.303162 404.075562,275.218018 404.091095,279.820129  C404.226715,319.967468 404.210938,360.115540 404.100433,400.263031  C404.089203,404.337585 405.340698,405.778534 409.526550,405.736969  C427.849426,405.555054 446.175201,405.662384 465.499939,405.665588 z"></path><path fill="#000000" opacity="1.000000" stroke="none" d="M475.057617,334.993286  C475.067017,326.005096 475.163818,317.514435 475.044373,309.026855  C474.990204,305.176758 476.593536,303.568115 480.415070,303.754730  C484.235565,303.941315 488.072205,303.784821 491.894714,303.945953  C503.355225,304.429138 512.226746,312.204224 514.067139,323.276855  C516.023499,335.047546 510.397552,346.076050 499.576935,349.914429  C492.612305,352.385010 485.084229,351.347839 477.784210,351.060028  C475.379028,350.965240 475.101196,348.847321 475.064972,346.976776  C474.990875,343.149933 475.051605,339.320496 475.057617,334.993286 M486.037781,343.605408  C487.363770,343.628754 488.690796,343.698181 490.015594,343.668121  C499.959045,343.442535 506.824493,336.383453 506.386536,326.857971  C505.963562,317.658478 498.651520,311.158142 489.155029,311.297241  C485.257416,311.354309 483.278595,312.879639 483.304840,316.905640  C483.353516,324.367645 483.286041,331.830322 483.289276,339.292725  C483.290009,340.954224 483.216370,342.692932 486.037781,343.605408 z"></path><path fill="#000000" opacity="1.000000" stroke="none" d="M434.088623,346.697083  C434.079254,334.581665 434.049500,322.924042 434.103485,311.266785  C434.136963,304.033569 434.425079,303.808289 441.829681,303.811493  C448.160461,303.814240 454.491241,303.835419 460.821991,303.826294  C463.457703,303.822510 465.363525,304.431854 465.331024,307.699493  C465.297455,311.074280 463.210938,311.361938 460.655487,311.332581  C456.657532,311.286652 452.658752,311.289001 448.660431,311.304993  C442.428223,311.329926 442.293884,311.741577 441.933685,317.657623  C441.629303,322.657104 443.739471,324.125336 448.365479,323.736389  C451.839539,323.444336 455.358154,323.709839 458.856201,323.666199  C461.398376,323.634521 463.119720,324.469330 463.021179,327.343781  C462.931519,329.959808 461.590118,331.268341 458.908875,331.247986  C454.744415,331.216370 450.578796,331.314362 446.414581,331.271179  C440.923401,331.214264 442.300903,335.299652 442.063019,338.395172  C441.817749,341.586639 442.344513,343.938232 446.519806,343.748688  C451.839691,343.507111 457.179962,343.751373 462.510315,343.687775  C465.168762,343.656067 466.539581,344.591644 466.441772,347.473328  C466.349243,350.199432 465.199066,351.307983 462.446503,351.274719  C454.451874,351.178101 446.454987,351.194031 438.459778,351.260925  C435.571198,351.285065 434.063629,350.107849 434.088623,346.697083 z"></path><path fill="#000000" opacity="1.000000" stroke="none" d="M550.796753,310.780579  C550.817627,309.337158 550.836487,308.338318 550.854370,307.339508  C550.899963,304.796356 552.297302,303.840942 554.717529,303.905792  C557.166382,303.971405 558.385559,305.083710 558.370667,307.586578  C558.313171,317.243530 558.689209,326.923523 558.137512,336.551025  C557.625366,345.487854 550.616760,351.298279 541.240295,351.648407  C531.856750,351.998810 523.816223,346.355927 523.102966,337.546173  C522.285767,327.452026 522.734070,317.253723 522.681885,307.100403  C522.668152,304.429810 524.445618,303.848328 526.722900,303.876831  C529.251648,303.908447 530.285156,305.191040 530.280823,307.628418  C530.265869,316.121674 530.205872,324.616333 530.334106,333.107880  C530.440735,340.166046 535.087891,344.362854 541.846863,343.779053  C546.948303,343.338409 550.300842,339.763306 550.398499,334.602417  C550.545837,326.810303 550.663940,319.017609 550.796753,310.780579 z"></path><path fill="#000000" opacity="1.000000" stroke="none" d="M671.373474,322.598999  C677.038208,323.904449 678.896484,327.699951 679.029968,332.646362  C679.142273,336.806854 679.116638,340.972809 679.069275,345.135437  C679.000122,351.198578 678.305725,351.703613 671.631714,350.655792  C671.631714,345.907379 671.849304,341.114777 671.546387,336.355316  C671.377136,333.697235 671.524719,330.042023 667.833740,329.604675  C663.930542,329.142212 661.825134,331.986145 660.777466,335.422546  C659.639587,339.154602 660.287659,343.035278 660.200745,346.848846  C660.138733,349.569641 659.434448,351.296051 656.221313,351.241791  C653.194214,351.190643 652.689819,349.486542 652.694519,347.023376  C652.721436,333.034393 652.711548,319.045349 652.697205,305.056305  C652.694763,302.692108 652.989441,300.805450 656.096985,300.704224  C659.283020,300.600372 660.144043,302.211975 660.122620,304.989838  C660.088013,309.485748 660.112976,313.983276 660.200378,318.478424  C660.234985,320.257874 659.831848,322.179504 661.564087,323.970215  C664.590637,323.713379 667.639099,321.801788 671.373474,322.598999 z"></path><path fill="#000000" opacity="1.000000" stroke="none" d="M588.693237,337.865540  C589.278076,329.086334 593.740173,323.905670 601.483093,322.556885  C608.099915,321.404266 613.520569,324.390106 616.544922,330.585602  C618.047546,333.663757 617.680359,335.302856 614.118896,336.493866  C609.120911,338.165283 603.938416,339.491150 598.990295,342.301636  C601.171021,345.481415 603.832397,345.925873 606.801208,344.455475  C609.580078,343.079163 611.658691,343.290375 612.748413,346.407379  C613.889648,349.671722 610.946899,349.871460 609.159180,350.638824  C601.827026,353.786011 589.666382,350.559906 588.693237,337.865540 M597.653992,334.877808  C601.613159,336.332275 604.452148,334.097565 607.714172,332.087372  C606.732849,329.521759 605.137817,328.087708 602.736145,328.690155  C599.971436,329.383759 597.324036,330.650848 597.653992,334.877808 z"></path><path fill="#000000" opacity="1.000000" stroke="none" d="M570.263672,333.112823  C569.639771,331.228577 568.541016,330.291199 567.330688,329.340759  C565.160889,327.637024 565.092651,325.259247 567.309326,323.969910  C570.557739,322.080353 570.742249,319.330139 570.637634,316.280212  C570.543030,313.524170 571.365540,311.771088 574.522095,311.818542  C577.389404,311.861664 578.337891,313.474060 578.186646,316.004242  C577.952148,319.928345 578.181946,323.162048 583.337708,323.899658  C585.821472,324.255035 586.047729,328.457794 583.604797,329.119446  C578.079407,330.615875 578.124023,334.595520 578.217834,338.901886  C578.279358,341.729004 578.209717,344.558685 578.231079,347.386993  C578.251831,350.135162 576.857239,351.243042 574.182495,351.195740  C571.637268,351.150696 570.649414,349.897308 570.636108,347.459808  C570.610718,342.806274 570.481567,338.153351 570.263672,333.112823 z"></path><path fill="#000000" opacity="1.000000" stroke="none" d="M632.053406,331.028748  C628.760864,334.469269 628.134033,338.129852 630.707275,341.674530  C633.123169,345.002380 636.435669,346.737396 640.681519,344.555969  C643.015442,343.356842 644.538818,344.520355 645.512268,346.531342  C646.720642,349.027771 644.660950,349.744690 643.027344,350.480774  C637.108643,353.147827 628.515503,351.323944 624.654297,346.653503  C620.752380,341.933807 620.613342,333.634003 624.349548,328.458099  C627.935242,323.490631 635.780273,321.287323 641.910889,323.721985  C643.895203,324.509979 646.908691,325.021851 645.554504,328.390686  C644.474182,331.078156 642.458069,331.502319 639.869446,330.171814  C637.301392,328.851929 634.727356,329.051208 632.053406,331.028748 z"></path><path fill="#000000" opacity="1.000000" stroke="none" d="M485.955231,369.539032  C488.668823,372.183136 486.950165,374.725983 485.359375,376.078430  C483.387634,377.754791 481.442017,375.652435 479.666565,373.903503  C478.039062,374.940643 476.543976,376.559845 474.183899,375.545044  C470.059814,373.771759 465.844788,377.487152 461.283020,375.071960  C459.038452,373.883606 456.583801,378.059021 453.617493,378.827637  C451.760834,376.599487 452.336884,373.933380 452.492096,371.631256  C452.722412,368.215057 455.827332,368.482330 457.839447,369.290009  C460.730560,370.450531 462.935181,370.674377 464.373627,367.679596  C471.567596,370.689026 478.656921,369.454712 485.955231,369.539032 z"></path><path fill="#000000" opacity="1.000000" stroke="none" d="M525.048828,375.994080  C523.173889,374.906067 521.521240,374.597168 520.061646,376.459351  C518.552795,373.667389 518.116333,371.451630 520.090698,369.881744  C522.638794,367.855804 525.067139,369.366302 527.020264,371.068665  C530.065918,369.404694 532.558228,367.607910 533.914307,363.299896  C536.994263,368.211548 535.904541,372.175781 535.069580,376.203247  C532.468994,376.611633 530.129700,376.890564 528.306519,374.969452  C526.501099,373.067017 526.316040,375.609528 525.048828,375.994080 z"></path><path fill="#000000" opacity="1.000000" stroke="none" d="M501.129639,375.022247  C500.677155,371.613007 500.343353,368.560303 501.255676,365.599487  C504.302246,365.600220 504.385437,368.912842 506.999451,369.315033  C508.385559,368.084595 509.941589,366.703369 511.912415,364.953918  C514.503723,368.824799 513.256653,372.264404 512.071289,376.297272  C508.442078,373.823944 504.860107,374.737488 501.129639,375.022247 z"></path><path fill="#000000" opacity="1.000000" stroke="none" d="M429.927643,369.181458  C431.044159,363.977417 432.331940,363.423096 438.243958,365.582001  C435.454559,367.294678 439.075134,371.496704 434.865631,372.805908  C435.294403,374.289001 437.898071,373.013153 438.059052,375.408569  C436.350769,377.107239 433.950073,377.065216 431.944366,376.245728  C428.921051,375.010498 430.458282,371.896973 429.927643,369.181458 z"></path><path fill="#000000" opacity="1.000000" stroke="none" d="M673.477051,369.210510  C675.231140,369.777557 676.587341,370.417877 678.151733,369.709076  C679.686768,369.013550 681.736084,368.191864 682.306213,370.440979  C682.695374,371.976410 683.769836,374.127625 681.999146,375.596100  C680.379700,376.939178 678.605469,376.837036 677.190430,375.122742  C676.551453,374.348602 676.173828,374.075684 675.317688,374.972595  C672.975647,377.426239 670.731140,376.871002 669.487061,373.997070  C668.063660,370.708923 670.256042,369.518951 673.477051,369.210510 z"></path><path fill="#000000" opacity="1.000000" stroke="none" d="M613.011780,374.897675  C612.594971,372.571869 612.144531,370.364410 614.686340,369.556610  C617.371033,368.703400 620.397156,368.028320 622.789917,369.861115  C624.870117,371.454437 624.479858,373.870697 623.382385,375.895691  C621.417175,376.531616 621.072327,375.375702 620.714905,374.162384  C618.478333,376.683533 615.860291,376.395111 613.011780,374.897675 z"></path><path fill="#000000" opacity="1.000000" stroke="none" d="M448.550598,369.245300  C452.113373,371.147064 451.354156,373.453094 450.229584,376.142609  C446.797119,373.751984 443.769104,376.666962 440.588165,375.834137  C439.174652,374.204285 439.585602,372.293488 440.020844,370.262238  C442.623230,369.044037 445.345184,368.764069 448.550598,369.245300 z"></path><path fill="#000000" opacity="1.000000" stroke="none" d="M632.796265,376.063446  C630.028625,373.978546 631.204773,371.166351 631.105347,368.657898  C631.023254,366.588745 631.698303,364.680847 634.227112,364.323486  C635.712158,364.113617 637.886292,363.816956 638.176758,365.306763  C638.598145,367.467529 638.727905,370.776764 636.786804,371.729218  C634.619995,372.792358 634.764771,375.022675 632.796265,376.063446 z"></path><path fill="#000000" opacity="1.000000" stroke="none" d="M575.037231,371.326019  C575.244507,373.944366 575.436218,376.179230 572.264221,376.414032  C570.351074,376.555634 568.605469,376.414307 567.633545,374.419067  C566.813416,372.735260 566.877502,371.085358 568.472229,370.003510  C570.808105,368.418823 573.093323,368.503113 575.037231,371.326019 z"></path><path fill="#000000" opacity="1.000000" stroke="none" d="M560.416382,366.766296  C556.810974,369.082184 559.653198,373.510040 556.724976,376.289978  C553.879028,373.109253 555.880676,368.547241 551.932739,365.433228  C555.666138,365.068176 558.458557,362.115051 560.416382,366.766296 z"></path><path fill="#000000" opacity="1.000000" stroke="none" d="M599.237915,369.859558  C602.107666,368.003662 603.914368,369.192017 605.247803,371.381500  C606.141663,372.849243 605.601868,374.275269 604.334045,375.329132  C602.771362,376.628204 600.937317,376.862610 599.359314,375.596649  C597.402344,374.026794 597.101807,372.056793 599.237915,369.859558 z"></path><path fill="#000000" opacity="1.000000" stroke="none" d="M596.576172,367.285706  C597.127136,370.832062 596.330261,373.600983 593.926575,376.570892  C591.192871,372.562317 591.681091,369.012970 593.551453,365.457733  C594.029297,364.549377 595.009644,364.047729 596.062927,364.458801  C597.318481,364.948914 597.004883,365.972900 596.576172,367.285706 z"></path><path fill="#000000" opacity="1.000000" stroke="none" d="M656.830688,369.900818  C658.601624,373.313538 659.246704,368.223572 660.726379,369.700989  C662.339600,371.795563 663.063843,374.296448 660.655090,376.028656  C659.205017,377.071472 656.544373,377.077057 655.304565,375.121124  C654.085876,373.198395 653.325745,370.832428 656.830688,369.900818 z"></path><path fill="#000000" opacity="1.000000" stroke="none" d="M581.067627,375.021362  C579.314941,373.346069 579.458557,376.859833 577.475647,375.493927  C576.501892,373.859131 575.787659,371.662750 577.840759,369.828827  C579.079773,368.722137 580.990967,368.730591 582.470886,369.804047  C584.170044,371.036530 584.285400,372.887207 583.736694,374.714447  C583.295044,376.185272 582.331116,376.428802 581.067627,375.021362 z"></path><path fill="#000000" opacity="1.000000" stroke="none" d="M642.360718,376.169312  C639.615295,374.509857 639.453613,372.451752 640.610291,369.797058  C642.417358,369.902893 644.333557,372.213867 646.136230,368.919830  C647.457947,373.303253 648.235718,376.402679 642.360718,376.169312 z"></path><path fill="#000000" opacity="1.000000" stroke="none" d="M542.119507,371.608704  C542.467407,373.848083 542.643555,375.700562 540.175537,376.186127  C538.750427,376.466492 537.465271,376.020966 537.246277,374.401123  C537.012756,372.673523 536.534729,370.699280 538.521912,369.592224  C540.321716,368.589539 541.645813,369.050018 542.119507,371.608704 z"></path><path fill="#000000" opacity="1.000000" stroke="none" d="M585.310913,371.658386  C586.019775,369.439240 587.367065,368.912506 589.579224,369.448853  C589.622986,371.499359 591.567139,373.570221 589.580566,375.649139  C589.050842,376.203522 587.670898,376.342529 586.825378,376.121490  C584.557922,375.528503 585.368835,373.546478 585.310913,371.658386 z"></path><path fill="#000000" opacity="1.000000" stroke="none" d="M652.018066,367.800537  C654.349915,371.143158 652.080994,373.406219 651.366211,376.518860  C647.437866,371.732880 647.824524,368.525726 652.018066,367.800537 z"></path><path fill="#000000" opacity="1.000000" stroke="none" d="M517.671997,373.108551  C517.529785,374.628723 517.576050,376.015472 515.920471,375.961456  C514.679016,375.920898 514.252380,374.790405 514.282166,373.823456  C514.355591,371.440735 514.349304,368.986237 516.030334,366.397797  C517.850525,368.529419 517.032898,370.829803 517.671997,373.108551 z"></path><path fill="#000000" opacity="1.000000" stroke="none" d="M665.860291,369.388428  C668.290039,371.197845 668.290039,371.197845 664.838135,375.801575  C662.054138,372.374268 662.154297,371.445343 665.860291,369.388428 z"></path><path fill="#000000" opacity="1.000000" stroke="none" d="M489.554962,369.963959  C491.090912,369.254333 492.345825,368.790894 493.697723,370.295471  C492.782227,372.156738 491.824615,374.103699 490.723511,376.342377  C488.195923,374.333832 488.737885,372.277893 489.554962,369.963959 z"></path><path fill="#000000" opacity="1.000000" stroke="none" d="M562.145386,375.701660  C560.362122,370.288208 560.818298,369.629364 566.050476,370.050873  C564.980286,372.192291 565.003296,374.733612 562.145386,375.701660 z"></path><path fill="#000000" opacity="1.000000" stroke="none" d="M608.171387,376.153503  C605.540222,370.902649 606.369690,369.302490 611.697327,369.727234  C610.578857,371.978271 609.534973,374.079254 608.171387,376.153503 z"></path></svg>