<svg xmlns="http://www.w3.org/2000/svg" xmlns:xlink="http://www.w3.org/1999/xlink" id="Layer_1" x="0px" y="0px" width="100%" viewBox="0 0 382 178" xml:space="preserve"><path fill="#212121" opacity="1.000000" stroke="none" d="M3.000000,1.000000  C124.355980,1.000000 245.711960,1.000000 367.530212,1.467026  C367.993530,5.375059 368.081879,8.818969 367.967712,12.256149  C367.877228,14.978305 368.986572,16.140066 371.731171,16.031490  C374.817535,15.909397 377.912292,16.000893 381.387146,16.206209  C381.839874,16.738306 381.969421,17.063688 381.969330,17.389029  C381.952606,70.551094 381.926575,123.713165 381.442017,176.927292  C262.014862,176.990875 143.046539,177.001755 24.078241,177.018616  C21.746920,177.018951 19.415607,177.089767 17.064980,176.653809  C16.902580,163.142487 16.902578,163.142639 3.862056,162.959122  C3.532373,162.954483 3.202853,162.938156 2.921843,162.465454  C2.980285,108.335747 2.990142,54.667873 3.000000,1.000000 M6.608833,13.515277  C6.608833,61.923500 6.608833,110.331726 6.608833,158.759262  C126.049217,158.759262 244.894928,158.759262 363.698761,158.759262  C363.698761,107.363335 363.698761,56.296665 363.698761,5.239400  C244.552963,5.239400 125.683464,5.239400 6.608811,5.239400  C6.608811,7.873944 6.608811,10.197778 6.608833,13.515277 z"></path><path fill="#888888" opacity="1.000000" stroke="none" d="M17.084290,177.127701  C19.415607,177.089767 21.746920,177.018951 24.078241,177.018616  C143.046539,177.001755 262.014862,176.990875 381.594849,177.312729  C382.137695,178.097412 382.068848,178.548706 382.000000,179.000000  C260.645233,179.000000 139.290466,179.000000 17.789953,178.781860  C17.457561,178.085052 17.270926,177.606369 17.084290,177.127701 z"></path><path fill="#B6B6B6" opacity="1.000000" stroke="none" d="M2.500000,1.000000  C2.990142,54.667873 2.980285,108.335747 2.552849,162.350006  C1.756846,162.797592 1.378422,162.898788 0.999999,163.000000  C1.000000,110.328232 0.992677,57.656456 1.041846,4.984735  C1.043086,3.656193 1.666667,2.328232 2.500000,1.000000 z"></path><path fill="#000000" opacity="1.000000" stroke="none" d="M0.999999,163.471191  C1.378422,162.898788 1.756846,162.797592 2.504264,162.811829  C3.202853,162.938156 3.532373,162.954483 3.862056,162.959122  C16.902578,163.142639 16.902580,163.142487 17.064980,176.653809  C17.270926,177.606369 17.457561,178.085052 17.322100,178.781860  C11.741570,179.000000 6.483140,179.000000 1.000000,179.000000  C1.000000,173.982285 1.000000,168.962341 0.999999,163.471191 z"></path><path fill="#000000" opacity="1.000000" stroke="none" d="M381.003418,15.999474  C377.912292,16.000893 374.817535,15.909397 371.731171,16.031490  C368.986572,16.140066 367.877228,14.978305 367.967712,12.256149  C368.081879,8.818969 367.993530,5.375059 367.996277,1.467026  C372.921356,1.000000 377.842712,1.000000 383.000000,1.000000  C383.000000,5.348784 383.000000,9.700264 382.668030,14.513094  C381.891815,15.316120 381.447632,15.657797 381.003418,15.999474 z"></path><path fill="#B6B6B6" opacity="1.000000" stroke="none" d="M381.387146,16.206209  C381.447632,15.657797 381.891815,15.316120 382.668030,14.987222  C383.000000,69.666664 383.000000,124.333336 382.500000,179.000000  C382.068848,178.548706 382.137695,178.097412 382.053711,177.260666  C381.926575,123.713165 381.952606,70.551094 381.969330,17.389029  C381.969421,17.063688 381.839874,16.738306 381.387146,16.206209 z"></path><path fill="#F2F2F2" opacity="1.000000" stroke="none" d="M6.608822,13.018444  C6.608811,10.197778 6.608811,7.873944 6.608811,5.239400  C125.683464,5.239400 244.552963,5.239400 363.698761,5.239400  C363.698761,56.296665 363.698761,107.363335 363.698761,158.759262  C244.894928,158.759262 126.049217,158.759262 6.608833,158.759262  C6.608833,110.331726 6.608833,61.923500 6.608822,13.018444 M91.684944,46.543919  C91.684944,62.272381 91.684944,78.000839 91.684944,93.834763  C99.010674,93.834763 105.812103,94.326706 112.515717,93.726372  C124.343346,92.667168 133.975128,82.962387 135.007248,71.890266  C136.345245,57.536777 129.867752,45.715485 117.366417,42.671341  C109.181915,40.678364 100.427505,41.025860 91.684982,40.305012  C91.684982,42.905563 91.684982,44.228752 91.684944,46.543919 M152.376877,40.939827  C150.583542,40.939827 148.790207,40.939827 146.918015,40.939827  C146.918015,53.650936 146.536987,65.962669 147.041473,78.238022  C147.428314,87.650322 155.978363,94.475586 166.301697,94.720474  C176.165848,94.954468 185.164337,88.409355 185.944199,79.334114  C186.781784,69.587303 186.526428,59.745632 186.716843,49.944748  C186.773605,47.023495 186.725601,44.100201 186.725601,41.075657  C184.066238,41.075657 182.101410,41.075657 179.672028,41.075657  C179.672028,43.023083 179.677933,44.811512 179.671051,46.599892  C179.633896,56.249912 179.924576,65.916237 179.449936,75.544792  C179.067841,83.296295 173.149384,88.187355 165.896423,87.729927  C158.709213,87.276649 154.043060,82.144432 153.866440,74.449936  C153.812988,72.121201 153.896118,69.789429 153.849045,67.460419  C153.671844,58.691620 153.466721,49.923389 152.376877,40.939827 M70.398636,47.728127  C72.848724,47.728127 75.298820,47.728127 77.914978,47.728127  C77.914978,45.242847 77.914978,43.310951 77.914978,41.194786  C66.534225,41.194786 55.329041,41.194786 44.042057,41.194786  C44.042057,58.868641 44.042057,76.257172 44.042057,94.030914  C55.766407,94.030914 67.270576,94.030914 78.970718,94.030914  C78.970718,91.804222 78.970718,89.723297 78.970718,87.122917  C69.538918,87.122917 60.315559,87.122917 50.931671,87.122917  C50.931671,81.525391 50.931671,76.448181 50.931671,70.836777  C59.008232,70.836777 66.902504,70.836777 74.872421,70.836777  C74.872421,68.252907 74.872421,66.209030 74.872421,63.821114  C66.798058,63.821114 59.037022,63.821114 51.109596,63.821114  C51.109596,58.280308 51.109596,53.099838 51.109596,47.728111  C57.468250,47.728111 63.446533,47.728111 70.398636,47.728127 M318.397522,69.970428  C318.949677,72.338303 319.878021,74.690331 319.978516,77.077225  C320.214325,82.676788 320.053986,88.293037 320.053986,93.917450  C322.633698,93.917450 324.586365,93.917450 326.927673,93.917450  C326.927673,86.307770 327.205139,78.839989 326.837860,71.404037  C326.556000,65.698128 322.527344,62.050743 316.788635,62.748882  C312.684052,63.248222 308.783325,65.422882 304.547791,66.937210  C304.547791,57.324585 304.547791,47.240883 304.547791,37.276020  C302.201965,37.276020 300.279602,37.276020 298.369141,37.276020  C298.369141,56.432137 298.369141,75.297302 298.369141,93.913498  C300.691193,93.913498 302.642487,93.913498 305.057617,93.913498  C305.057617,88.718445 304.851013,83.749840 305.105164,78.804924  C305.504913,71.026543 310.507812,67.415184 318.397522,69.970428 M234.764389,94.103760  C240.511810,95.608086 245.760651,94.556053 250.935562,91.180969  C249.761932,89.433167 248.787277,87.981667 247.870728,86.616714  C239.341843,90.166855 235.840973,89.571167 232.261887,84.052338  C240.150543,81.211220 247.990479,78.387657 257.164520,75.083611  C253.727356,70.980209 251.503052,66.790131 248.027802,64.490799  C240.457825,59.482311 229.242935,63.397995 225.102966,71.723061  C220.932846,80.108727 224.734848,89.553276 234.764389,94.103760 M203.843353,50.147434  C203.116364,54.523811 202.389389,58.900192 201.625412,63.499207  C200.323166,63.660919 198.740067,63.857506 197.042480,64.068314  C197.042480,65.765457 197.042480,67.206802 197.042480,68.913864  C198.770020,69.057251 200.361374,69.189339 202.442230,69.362053  C202.442230,77.650459 202.442230,85.726746 202.442230,93.824585  C205.042679,93.824585 207.125580,93.824585 209.807312,93.824585  C209.807312,85.485268 209.807312,77.426147 209.807312,68.940796  C212.831726,68.940796 215.255341,68.940796 217.696564,68.940796  C217.696564,67.023224 217.696564,65.565193 217.696564,63.983639  C215.048965,63.830170 212.589401,63.687603 209.608307,63.514801  C209.608307,59.097008 209.608307,54.833275 209.608307,50.108765  C207.620621,50.108765 206.164368,50.108765 203.843353,50.147434 M269.115326,81.791779  C268.148010,70.463486 273.801941,66.773590 286.397644,70.693199  C287.308319,69.420158 288.254333,68.097733 289.195496,66.782104  C281.836121,61.196644 271.494843,61.743496 265.954956,67.833969  C260.612000,73.707886 260.627808,83.979050 265.797424,89.757950  C270.500275,95.015083 282.518494,97.066032 288.848938,91.178688  C287.516754,88.432045 286.291992,86.826782 282.484100,88.478745  C277.305908,90.725174 272.884399,88.293266 269.115326,81.791779 z"></path><path fill="#232323" opacity="1.000000" stroke="none" d="M91.684967,46.047932  C91.684982,44.228752 91.684982,42.905563 91.684982,40.305012  C100.427505,41.025860 109.181915,40.678364 117.366417,42.671341  C129.867752,45.715485 136.345245,57.536777 135.007248,71.890266  C133.975128,82.962387 124.343346,92.667168 112.515717,93.726372  C105.812103,94.326706 99.010674,93.834763 91.684944,93.834763  C91.684944,78.000839 91.684944,62.272381 91.684967,46.047932 M98.937271,51.586010  C98.937271,63.335251 98.937271,75.084496 98.937271,86.973503  C102.925804,86.973503 106.393173,87.142906 109.838699,86.940506  C118.788559,86.414787 125.447769,80.834755 127.251488,72.563019  C129.276047,63.278557 126.027122,53.832546 118.059715,50.514771  C112.783958,48.317856 106.495003,48.503529 100.633438,47.861721  C100.173767,47.811394 99.508003,49.643257 98.937271,51.586010 z"></path><path fill="#262626" opacity="1.000000" stroke="none" d="M152.824463,41.047386  C153.466721,49.923389 153.671844,58.691620 153.849045,67.460419  C153.896118,69.789429 153.812988,72.121201 153.866440,74.449936  C154.043060,82.144432 158.709213,87.276649 165.896423,87.729927  C173.149384,88.187355 179.067841,83.296295 179.449936,75.544792  C179.924576,65.916237 179.633896,56.249912 179.671051,46.599892  C179.677933,44.811512 179.672028,43.023083 179.672028,41.075657  C182.101410,41.075657 184.066238,41.075657 186.725601,41.075657  C186.725601,44.100201 186.773605,47.023495 186.716843,49.944748  C186.526428,59.745632 186.781784,69.587303 185.944199,79.334114  C185.164337,88.409355 176.165848,94.954468 166.301697,94.720474  C155.978363,94.475586 147.428314,87.650322 147.041473,78.238022  C146.536987,65.962669 146.918015,53.650936 146.918015,40.939827  C148.790207,40.939827 150.583542,40.939827 152.824463,41.047386 z"></path><path fill="#262626" opacity="1.000000" stroke="none" d="M69.911728,47.728119  C63.446533,47.728111 57.468250,47.728111 51.109596,47.728111  C51.109596,53.099838 51.109596,58.280308 51.109596,63.821114  C59.037022,63.821114 66.798058,63.821114 74.872421,63.821114  C74.872421,66.209030 74.872421,68.252907 74.872421,70.836777  C66.902504,70.836777 59.008232,70.836777 50.931671,70.836777  C50.931671,76.448181 50.931671,81.525391 50.931671,87.122917  C60.315559,87.122917 69.538918,87.122917 78.970718,87.122917  C78.970718,89.723297 78.970718,91.804222 78.970718,94.030914  C67.270576,94.030914 55.766407,94.030914 44.042057,94.030914  C44.042057,76.257172 44.042057,58.868641 44.042057,41.194786  C55.329041,41.194786 66.534225,41.194786 77.914978,41.194786  C77.914978,43.310951 77.914978,45.242847 77.914978,47.728127  C75.298820,47.728127 72.848724,47.728127 69.911728,47.728119 z"></path><path fill="#252525" opacity="1.000000" stroke="none" d="M318.094788,69.657532  C310.507812,67.415184 305.504913,71.026543 305.105164,78.804924  C304.851013,83.749840 305.057617,88.718445 305.057617,93.913498  C302.642487,93.913498 300.691193,93.913498 298.369141,93.913498  C298.369141,75.297302 298.369141,56.432137 298.369141,37.276020  C300.279602,37.276020 302.201965,37.276020 304.547791,37.276020  C304.547791,47.240883 304.547791,57.324585 304.547791,66.937210  C308.783325,65.422882 312.684052,63.248222 316.788635,62.748882  C322.527344,62.050743 326.556000,65.698128 326.837860,71.404037  C327.205139,78.839989 326.927673,86.307770 326.927673,93.917450  C324.586365,93.917450 322.633698,93.917450 320.053986,93.917450  C320.053986,88.293037 320.214325,82.676788 319.978516,77.077225  C319.878021,74.690331 318.949677,72.338303 318.094788,69.657532 z"></path><path fill="#232323" opacity="1.000000" stroke="none" d="M234.386932,93.975822  C224.734848,89.553276 220.932846,80.108727 225.102966,71.723061  C229.242935,63.397995 240.457825,59.482311 248.027802,64.490799  C251.503052,66.790131 253.727356,70.980209 257.164520,75.083611  C247.990479,78.387657 240.150543,81.211220 232.261887,84.052338  C235.840973,89.571167 239.341843,90.166855 247.870728,86.616714  C248.787277,87.981667 249.761932,89.433167 250.935562,91.180969  C245.760651,94.556053 240.511810,95.608086 234.386932,93.975822 M246.345688,70.855080  C243.650681,67.500633 240.081085,67.121819 236.466339,68.587273  C231.749893,70.499352 230.225327,74.518364 230.367447,79.929848  C235.755661,77.973175 240.846375,76.214096 245.833786,74.199387  C246.453064,73.949242 246.523972,72.341675 246.345688,70.855080 z"></path><path fill="#333333" opacity="1.000000" stroke="none" d="M204.275726,50.128098  C206.164368,50.108765 207.620621,50.108765 209.608307,50.108765  C209.608307,54.833275 209.608307,59.097008 209.608307,63.514801  C212.589401,63.687603 215.048965,63.830170 217.696564,63.983639  C217.696564,65.565193 217.696564,67.023224 217.696564,68.940796  C215.255341,68.940796 212.831726,68.940796 209.807312,68.940796  C209.807312,77.426147 209.807312,85.485268 209.807312,93.824585  C207.125580,93.824585 205.042679,93.824585 202.442230,93.824585  C202.442230,85.726746 202.442230,77.650459 202.442230,69.362053  C200.361374,69.189339 198.770020,69.057251 197.042480,68.913864  C197.042480,67.206802 197.042480,65.765457 197.042480,64.068314  C198.740067,63.857506 200.323166,63.660919 201.625412,63.499207  C202.389389,58.900192 203.116364,54.523811 204.275726,50.128098 z"></path><path fill="#292929" opacity="1.000000" stroke="none" d="M269.263062,82.171341  C272.884399,88.293266 277.305908,90.725174 282.484100,88.478745  C286.291992,86.826782 287.516754,88.432045 288.848938,91.178688  C282.518494,97.066032 270.500275,95.015083 265.797424,89.757950  C260.627808,83.979050 260.612000,73.707886 265.954956,67.833969  C271.494843,61.743496 281.836121,61.196644 289.195496,66.782104  C288.254333,68.097733 287.308319,69.420158 286.397644,70.693199  C273.801941,66.773590 268.148010,70.463486 269.263062,82.171341 z"></path><path fill="#F1F1F1" opacity="1.000000" stroke="none" d="M98.937653,51.093178  C99.508003,49.643257 100.173767,47.811394 100.633438,47.861721  C106.495003,48.503529 112.783958,48.317856 118.059715,50.514771  C126.027122,53.832546 129.276047,63.278557 127.251488,72.563019  C125.447769,80.834755 118.788559,86.414787 109.838699,86.940506  C106.393173,87.142906 102.925804,86.973503 98.937271,86.973503  C98.937271,75.084496 98.937271,63.335251 98.937653,51.093178 z"></path><path fill="#E6E6E6" opacity="1.000000" stroke="none" d="M246.597321,71.109085  C246.523972,72.341675 246.453064,73.949242 245.833786,74.199387  C240.846375,76.214096 235.755661,77.973175 230.367447,79.929848  C230.225327,74.518364 231.749893,70.499352 236.466339,68.587273  C240.081085,67.121819 243.650681,67.500633 246.597321,71.109085 z"></path></svg>